<?xml version="1.0" encoding="UTF-8"?>
<svg id="Calque_1" xmlns="http://www.w3.org/2000/svg" viewBox="0 0 256 256">
  <defs>
    <style>
      .cls-1 {
        fill: #772d80;
      }

      .cls-2 {
        fill: #fff;
      }
    </style>
  </defs>
  <rect class="cls-1" x="27" y="26.67" width="202" height="202" rx="45.34" ry="45.34"/>
  <g>
    <path class="cls-2" d="M179.88,180.91h-103.77c-7.2,0-13.05-5.85-13.05-13.05,0-2.43.68-4.81,1.96-6.87,1.27-2.06,3.1-3.73,5.27-4.81,2.28-1.14,4.19-2.88,5.52-5.04,1.34-2.16,2.04-4.65,2.04-7.19v-33.46c0-22.07,14.21-41.25,34.95-47.8,1.06-7.43,7.47-13.17,15.19-13.17s14.13,5.74,15.19,13.17c7.62,2.42,14.57,6.64,20.26,12.34,9.47,9.47,14.69,22.06,14.69,35.45v33.46c0,5.22,2.9,9.9,7.57,12.23,2.17,1.09,4,2.75,5.28,4.81,1.28,2.07,1.95,4.44,1.95,6.87,0,7.2-5.85,13.05-13.05,13.05ZM128,58.55c-3.48,0-6.32,2.84-6.32,6.32,0,.25.01.5.04.74l.48,3.98-3.89.94c-18.5,4.47-31.42,20.91-31.42,39.97v33.46c0,4.22-1.17,8.35-3.39,11.94-2.22,3.58-5.39,6.47-9.17,8.36-.68.34-1.24.85-1.63,1.49-.4.64-.61,1.37-.61,2.12,0,2.22,1.81,4.03,4.03,4.03h103.77c2.22,0,4.03-1.81,4.03-4.03,0-.75-.21-1.48-.6-2.12-.4-.64-.96-1.15-1.63-1.49-7.75-3.86-12.56-11.64-12.56-20.3v-33.46c0-10.98-4.28-21.31-12.04-29.07-5.36-5.36-12.05-9.12-19.38-10.9l-3.89-.94.48-3.98c.03-.24.04-.49.04-.74,0-3.48-2.84-6.32-6.32-6.32Z"/>
    <path class="cls-2" d="M128,205.8c-16.19,0-29.35-13.17-29.35-29.35v-4.51h58.7v4.51c0,16.19-13.17,29.35-29.35,29.35ZM108.17,180.96c2.06,9.05,10.17,15.82,19.83,15.82s17.77-6.78,19.83-15.82h-39.65Z"/>
  </g>
</svg>