<?xml version="1.0" encoding="UTF-8"?>
<svg id="Calque_1" xmlns="http://www.w3.org/2000/svg" xmlns:xlink="http://www.w3.org/1999/xlink" viewBox="0 0 256 256">
  <defs>
    <style>
      .cls-1 {
        fill: #eae7d8;
      }

      .cls-2 {
        filter: url(#drop-shadow-2);
      }

      .cls-3 {
        fill: #131139;
      }

      .cls-4 {
        fill: #7673ac;
      }

      .cls-5 {
        fill: #e8e4d4;
      }

      .cls-6 {
        fill: #6e6ba8;
      }

      .cls-7 {
        filter: url(#drop-shadow-1);
      }

      .cls-7, .cls-8 {
        fill: #58abaf;
      }

      .cls-9 {
        fill: #4844a8;
      }

      .cls-10 {
        fill: #f7f6f1;
      }

      .cls-11 {
        fill: #c0bfd9;
      }

      .cls-12 {
        fill: #4d4994;
      }

      .cls-13 {
        fill: #3b3789;
      }

      .cls-14 {
        fill: #4f4b95;
      }

      .cls-15 {
        fill: #a3a1c8;
      }

      .cls-16 {
        fill: #0e1112;
      }

      .cls-17 {
        fill: #fefefe;
      }

      .cls-18 {
        fill: #5e5b9e;
      }
    </style>
    <filter id="drop-shadow-1" x="4" y="20" width="257" height="257" filterUnits="userSpaceOnUse">
      <feOffset dx="2" dy="2"/>
      <feGaussianBlur result="blur" stdDeviation="10"/>
      <feFlood flood-color="#202066" flood-opacity=".5"/>
      <feComposite in2="blur" operator="in"/>
      <feComposite in="SourceGraphic"/>
    </filter>
    <filter id="drop-shadow-2" x="-2" y="-21" width="224" height="279" filterUnits="userSpaceOnUse">
      <feOffset dx="2" dy="-2"/>
      <feGaussianBlur result="blur-2" stdDeviation="10"/>
      <feFlood flood-color="#202066" flood-opacity=".5"/>
      <feComposite in2="blur-2" operator="in"/>
      <feComposite in="SourceGraphic"/>
    </filter>
  </defs>
  <circle class="cls-7" cx="130.83" cy="146.41" r="98"/>
  <g class="cls-2">
    <g>
      <path class="cls-12" d="M159.72,42.19c1.17-.8,2.32-1.63,3.51-2.4-.54,1.37-1.04,2.78-1.67,4.11l-.73,1.01c-.43-.3-.88-.47-1.35-.68.47-.75.29-1.18.24-2.04Z"/>
      <path class="cls-4" d="M102.03,212.22c1.26.18,2.59.47,3.86.3,2.52,1.08,5.04,2,7.68,2.75,1.19.34,2.52.51,3.68.94-1.61,2.75-3.4,3.91-6.48,4.7-1.42.35-2.84.69-4.26,1.01-3.1-2.41-4.9-5.19-6.71-8.61l2.24-1.09Z"/>
      <path class="cls-6" d="M157.33,212.88c2.27.09,4.75-.84,6.97-1.28.56.51,1.08,1.01,1.73,1.41-.71,3.95-5.75,6.31-8.51,8.9-1.62-.34-3.35-.74-4.9-1.32-2.5-.94-4.06-2.14-5.17-4.59,3.34-.96,6.73-1.58,9.88-3.12Z"/>
      <path class="cls-10" d="M166.03,213.01c4.07,1.4,14.28,5.16,16.18,8.89-.01.56.12.74-.3,1.15-.69.65-1.35,1.01-2.25,1.3.46.84.66.92.43,1.83l-1.06.95c-.64.38-1.01.63-1.42,1.25-1.14.44-1.97.67-3.2.67-1.34-.05-2.65.09-3.99-.06-1.51-.49-2.79-1.08-4.18-1.84-2.97-1.75-5.49-3.92-8.71-5.25,2.76-2.58,7.81-4.95,8.51-8.9Z"/>
      <path class="cls-1" d="M173.4,221.94c2.17.61,4.07,2.02,6.26,2.42.46.84.66.92.43,1.83l-1.06.95c-2.05-1.27-3.89-3.52-5.63-5.21Z"/>
      <path class="cls-1" d="M166.23,227.16c-.14-1.05-.27-1.38.15-2.37.67-.16.81-.2,1.45.17.98.57,2.62,2.27,2.88,3.42.02.1.02.2.03.3l-.34.32c-1.51-.49-2.79-1.08-4.18-1.84Z"/>
      <path class="cls-1" d="M174.4,229.06c-.92-1.86-2.32-3.6-3.39-5.4,2.42,1.33,4.49,2.94,6.59,4.73-1.14.44-1.97.67-3.2.67Z"/>
      <path class="cls-10" d="M89.66,228.61c-1.38.35-3.52.4-4.89.05-1.51-.38-2.27-1.43-3.04-2.7-.53-.87-1.91-.53-2.68-1.47.03-.91.15-1.57.7-2.33,3.33-4.65,14.52-8.04,20.05-8.85,1.81,3.42,3.61,6.2,6.71,8.61-5.98,1.31-10.56,5.75-16.58,6.56l-.26.13Z"/>
      <path class="cls-1" d="M89.66,228.61c-.79-.04-2.37.07-2.99-.34,1.64-1.74,3.29-3.98,5.7-4.39l.43.27c-.57,1.68-2.22,2.69-2.88,4.33l-.26.13Z"/>
      <path class="cls-11" d="M100.34,43.58c4.08,6.93,7.12,13.35,8.86,21.22-2.71,1.98-5.03,4.15-7.26,6.66-.84.94-1.6,2.1-2.52,2.95-1.43-1.88-2.76-3.74-3.78-5.88-.17-.36-.33-.73-.48-1.1-.15-.37-.29-.75-.43-1.12-.13-.38-.26-.76-.37-1.14-.11-.38-.22-.77-.31-1.16-.09-.39-.18-.78-.25-1.18-.08-.39-.14-.79-.19-1.19-.06-.4-.1-.8-.14-1.19-.04-.4-.06-.8-.08-1.2s-.02-.8-.02-1.2c0-.4.02-.8.04-1.2.02-.4.06-.8.1-1.2.04-.4.1-.8.16-1.19.06-.4.14-.79.22-1.18.08-.39.18-.78.28-1.17s.22-.77.34-1.15c.12-.38.25-.76.4-1.14,1.07-2.84,2.64-4.96,5.41-6.24Z"/>
      <path class="cls-13" d="M71.2,177.21l.74-.37c1.24.69,2.51,3.34,3.51,4.53,4.06,4.78,10.5,10.36,16.41,12.63l.88,1.55c3.18,7,6.71,12.58,13.14,16.98-1.27.16-2.6-.13-3.86-.3-4.84-1.59-9.3-3.41-13.39-6.5-8.88-6.7-15.84-17.43-17.44-28.51Z"/>
      <path class="cls-12" d="M71.2,177.21c-.42-2.12-.59-4.37-.42-6.53.59-7.69,4.54-13.9,10.28-18.82.46,4.88.9,9.35,2.99,13.87,1.28,2.76,3.66,5.45,4.12,8.4.01.08.07.16.11.23.3,6.95,1.34,13.03,3.59,19.63-5.91-2.27-12.36-7.85-16.41-12.63-1.01-1.19-2.27-3.84-3.51-4.53l-.74.37Z"/>
      <path class="cls-13" d="M179.92,152.28c6.48,6.37,9.64,13.03,9.72,22.22.1,10.71-3.73,20.54-11.27,28.15-4.14,4.17-8.77,6.57-14.06,8.95-2.23.44-4.7,1.37-6.97,1.28.42-.37.84-.74,1.25-1.12,11.31-10.57,14.17-25.77,14.73-40.56,1.48-3.12,3.22-5.74,4.27-9.11.96-3.07,1.27-6.3,2.19-9.33l.15-.48Z"/>
      <path class="cls-9" d="M159.72,42.19c.05.86.24,1.29-.24,2.04.48.21.92.38,1.35.68l.73-1.01c3.09,1.83,4.77,4.7,5.67,8.13,1.58,6.03.85,13.86-2.32,19.29-.73,1.25-1.59,2.4-2.5,3.52,4.12,6.94,7.39,14.44,11.63,21.28-3.7,1.13-7.4,2.21-11.21,2.88l-5.98,1.13c.1-.12.21-.24.32-.37,2.07-2.47,3.07-4.88,2.73-8.11-.15-2.73-1.56-5.96-2.92-8.32-1.38-2.41-3.48-5.22-6.33-5.88-1.54-.36-2.71.25-4,1.04-1.52-2.78-1.99-8.25-3.21-11.48-.99-2.62-3.15-4.63-4.19-7.1-.05-.12-.1-.25-.15-.37,2.15.39,4.36.76,6.4,1.54,2.2-8.74,7-13.8,14.21-18.89Z"/>
      <path class="cls-18" d="M159.72,42.19c.05.86.24,1.29-.24,2.04-4.89,5.39-7.88,12.16-9.71,19.14-1.4-.86-2.73-1.68-4.26-2.29,2.2-8.74,7-13.8,14.21-18.89Z"/>
      <path class="cls-15" d="M161.56,43.9c3.09,1.83,4.77,4.7,5.67,8.13,1.58,6.03.85,13.86-2.32,19.29-.73,1.25-1.59,2.4-2.5,3.52-2.96-3.94-5.79-7.07-9.82-9.91,1.73-7.2,4.66-13.57,8.24-20.02l.73-1.01Z"/>
      <path class="cls-1" d="M153.58,189.7c1.75-1.63,2.81-4.24,4.59-5.99,2.41-2.36,5.29-4.33,7.9-6.48,2.35-1.94,4.4-4.06,6.57-6.16l.67.13c-.56,14.79-3.41,29.99-14.73,40.56-.41.38-.82.76-1.25,1.12-3.14,1.54-6.54,2.16-9.88,3.12-7.19,1.27-14.58,1.95-21.88,1.31-2.79-.24-5.54-.86-8.33-1.1-1.15-.43-2.48-.59-3.68-.94-2.64-.76-5.16-1.67-7.68-2.75-6.44-4.4-9.97-9.99-13.14-16.98,2.37,1.23,4.65,3.52,6.84,5.13,6.82,5.02,15.16,8.73,23.67,9.41,11.25.9,22.83-1.96,31.46-9.38-3.11-1.31-6.83-2.53-9.52-4.58-1.85-1.42-2.3-2.28-2.58-4.58.2.42.41.8.65,1.2.85-.04,1.45-1.04,2.04-1.65.11.9.16,1.5.75,2.24.69.35,1.03.42,1.8.37l1.25-.15.96-.24c-.41-1.14.32-2.95.62-4.1.96.07,2.02.03,2.88.5Z"/>
      <path class="cls-9" d="M150.7,189.2c.96.07,2.02.03,2.88.5-1.03,1.44-1.89,2.74-3.5,3.6-.41-1.14.32-2.95.62-4.1Z"/>
      <path class="cls-18" d="M168.33,116.04c7.5,7.62,10.21,19.02,10.91,29.35.13,1.84-.21,5.43.68,6.89l-.15.48c-.93,3.03-1.24,6.26-2.19,9.33-1.05,3.37-2.79,5.99-4.27,9.11l-.67-.13c-2.18,2.11-4.23,4.22-6.57,6.16-2.6,2.15-5.49,4.12-7.9,6.48-1.78,1.75-2.83,4.35-4.59,5.99-.86-.46-1.92-.42-2.88-.5-.3,1.15-1.04,2.96-.62,4.1l-.96.24-1.25.15c-.77.05-1.12-.03-1.8-.37-.6-.73-.64-1.34-.75-2.24-.59.62-1.19,1.61-2.04,1.65-.24-.4-.45-.77-.65-1.2-.17-.95.02-1.54.31-2.43l-.47-.33c.83-1.94,2.46-3.58,3.04-5.63.3-1.08.26-1.75-.28-2.76.86-1.86,2.44-3.67,3.53-5.45,1.72-2.81,3.11-6.17,4.2-9.27,3.84-10.93,2.18-18.31-.4-29.26-.6-3.16-1.43-6.29-2.18-9.42,6.46-1.57,13.74-5.76,17.96-10.95Z"/>
      <path class="cls-9" d="M147.86,193.69l-.81-.45c-.43-1.83,2.07-5.49,2.89-7.18-.27,2.49-.47,5.01-.84,7.49l-1.25.15Z"/>
      <path class="cls-9" d="M142.93,189.1c.8-1.03,1.53-1.98,2.6-2.76l.6-.02.39.56c.64-.48,1.1-1,1.63-1.59-.9,1.95-2.26,3.73-2.85,5.79-.59.62-1.19,1.61-2.04,1.65-.24-.4-.45-.77-.65-1.2-.17-.95.02-1.54.31-2.43Z"/>
      <path class="cls-12" d="M168.33,116.04c7.5,7.62,10.21,19.02,10.91,29.35.13,1.84-.21,5.43.68,6.89l-.15.48c-.93,3.03-1.24,6.26-2.19,9.33-1.05,3.37-2.79,5.99-4.27,9.11l-.67-.13c-2.18,2.11-4.23,4.22-6.57,6.16-2.6,2.15-5.49,4.12-7.9,6.48-1.78,1.75-2.83,4.35-4.59,5.99-.86-.46-1.92-.42-2.88-.5.71-3.81,13.06-17.33,16.14-21.6,2.13-2.96,4.02-6.12,5.39-9.5,2.36-5.81,3.83-16.63,1.19-22.46-1.19-2.62-3.41-3.5-5.93-4.42-5.16,1.21-9.82,4.02-14.94,5.18-.6-3.16-1.43-6.29-2.18-9.42,6.46-1.57,13.74-5.76,17.96-10.95Z"/>
      <path class="cls-10" d="M98.74,39.74l3.37,2.39c7.18,5.2,12.19,10,14.52,18.86,7.3-1.54,15.04-3.05,22.47-1.44.05.12.1.25.15.37,1.04,2.47,3.2,4.47,4.19,7.1,1.22,3.24,1.69,8.7,3.21,11.48,1.28-.79,2.45-1.4,4-1.04,2.86.66,4.95,3.47,6.33,5.88,1.36,2.36,2.77,5.59,2.92,8.32.34,3.23-.66,5.64-2.73,8.11-.1.12-.21.24-.32.37l5.98-1.13c3.81-.67,7.51-1.76,11.21-2.88,1.52,2.93,1.55,6.36.6,9.47-1.17,3.81-3.63,7.52-6.31,10.44-4.21,5.19-11.5,9.39-17.96,10.95.75,3.13,1.58,6.26,2.18,9.42-3.79.17-8.1,1.59-11.9,2.26-9.99-4.36-21.4-4.15-31.79-7.1l.89-4.37c-6.81-1.48-13.89-6.87-18.59-11.82,0-.17.06-.34.01-.5-.11-.37-.96-1.22-1.25-1.61-2.13-2.86-4.01-6.13-4.4-9.74-.28-2.55.46-5.78,2.06-7.83,3.35-7.22,6.88-14.99,11.84-21.26.92-.85,1.68-2,2.52-2.95,2.23-2.52,4.55-4.68,7.26-6.66-1.74-7.87-4.78-14.29-8.86-21.22-.61-1.24-1.09-2.56-1.6-3.84Z"/>
      <path class="cls-9" d="M117.92,110.34c1.22,1.11,2.44,2.34,3.78,3.29,1.3.92,2.89,1.72,4.52,1.4,1.54-.31,2.33-1.32,3.17-2.56l.45-.18c-.08.69-.28,1.32-.48,1.98l.33.16c.37-.24.82-.49,1.17-.77,1.96.94,3.4,1.78,5.6,1.04,1.81-.61,3.7-2.48,5.2-3.68-1.87,2.76-4.13,4.99-7.51,5.67-1.05.21-2.12.21-3.18.23-1.88-.18-3.85-.28-5.69-.71-3.53-.82-5.52-2.91-7.37-5.86Z"/>
      <path class="cls-8" d="M107.11,84.07c2.85-.16,5.28-.21,7.53,1.88,1.87,1.73,2.54,4.33,2.54,6.8,0,.35,0,.7-.01,1.05-.26-.46-.36-.53-.78-.81l-1.03.52-.66-.28c-.75-1.22.31-1.31.07-2.38-.32-1.41-1.53-2.73-2.69-3.52-2.44-1.67-4.89-1.87-7.68-1.33.89-.71,1.73-1.38,2.72-1.94Z"/>
      <path class="cls-3" d="M104.39,86.01c2.79-.54,5.24-.34,7.68,1.33,1.16.79,2.37,2.12,2.69,3.52.24,1.08-.82,1.16-.07,2.38l.66.28,1.03-.52c.42.28.52.35.78.81-.22.98-.48,1.89-.99,2.77-.12.21-.26.42-.41.62-.14.2-.3.39-.46.58-.16.18-.34.36-.52.53-.18.17-.37.33-.57.47-.2.15-.4.29-.61.42-.21.13-.43.25-.65.35s-.45.2-.68.29c-.23.09-.47.16-.71.22-2.12.55-4.47.23-6.32-.95-.2-.13-.4-.26-.58-.41-.19-.15-.37-.3-.54-.47-.17-.17-.33-.34-.49-.52-.15-.18-.3-.37-.43-.57-.13-.2-.26-.4-.37-.61-.11-.21-.21-.42-.3-.64-.09-.22-.17-.44-.24-.67-.07-.23-.12-.46-.17-.69-.58-3.09.57-5.99,2.24-8.51Z"/>
      <path class="cls-17" d="M105.94,86.45c.99.12,1.97.23,2.72.93v.72s-.36.23-.36.23l-1.22-.79-.45.16c.54,1.1.87,1.91,1,3.13-.63.44-1.44.89-2.25.84-.92-.06-1.1-.24-1.73-.84-.17-.63-.3-1.07-.14-1.73.32-1.35,1.36-1.95,2.43-2.66Z"/>
      <path class="cls-4" d="M111.74,63.54c3.07-1.36,9.68-1.21,12.84.07.7.28,1.08.47,1.36,1.19-2.58,4.14-15.67,6.85-16.68,12.04l-1.18,1.02c-3.7,3.15-7.26,9.4-7.68,14.27-.2,2.35.48,4.97,2.15,6.7.51.52,1.1.98,1.66,1.43l.25.21c-5.56-.45-12.28-1.34-16.9-4.79,3.35-7.22,6.88-14.99,11.84-21.26.92-.85,1.68-2,2.52-2.95,2.23-2.52,4.55-4.68,7.26-6.66.98-.14,1.77-.72,2.55-1.27Z"/>
      <path class="cls-5" d="M159.43,91.83l.46-.17c.34,3.23-.66,5.64-2.73,8.11-.1.12-.21.24-.32.37l5.98-1.13c3.81-.67,7.51-1.76,11.21-2.88,1.52,2.93,1.55,6.36.6,9.47-1.17,3.81-3.63,7.52-6.31,10.44-4.21,5.19-11.5,9.39-17.96,10.95.75,3.13,1.58,6.26,2.18,9.42-3.79.17-8.1,1.59-11.9,2.26-9.99-4.36-21.4-4.15-31.79-7.1l.89-4.37c8.23,2.14,17.06,3.41,25.54,2.3-1.83-4.08-3.83-8.07-4.31-12.57,1.06-.01,2.13-.02,3.18-.23,3.38-.68,5.64-2.91,7.51-5.67-1.5,1.2-3.4,3.07-5.2,3.68-2.21.74-3.64-.1-5.6-1.04-.18-1.19-.04-1.6.62-2.55,3.05-1.64,5.11-3.33,6.58-6.54l.35-.61c.94-.71,3.03-.62,4.23-.97,1.34-.4,2.04-1.34,2.62-2.53.59-.36.82-.76,1.18-1.34,1.59.89,3.05,1.45,4.9,1.5,2.17.07,4.34-.6,5.88-2.18,1.85-1.89,2.23-4.07,2.21-6.61Z"/>
      <path class="cls-1" d="M159.43,91.83l.46-.17c.34,3.23-.66,5.64-2.73,8.11-.1.12-.21.24-.32.37l5.98-1.13.67.43c.39,2.87-2.73,7.45-4.43,9.7-5.18,6.88-15.69,17.49-23.79,20.35-1.83-4.08-3.83-8.07-4.31-12.57,1.06-.01,2.13-.02,3.18-.23,3.38-.68,5.64-2.91,7.51-5.67-1.5,1.2-3.4,3.07-5.2,3.68-2.21.74-3.64-.1-5.6-1.04-.18-1.19-.04-1.6.62-2.55,3.05-1.64,5.11-3.33,6.58-6.54l.35-.61c.94-.71,3.03-.62,4.23-.97,1.34-.4,2.04-1.34,2.62-2.53.59-.36.82-.76,1.18-1.34,1.59.89,3.05,1.45,4.9,1.5,2.17.07,4.34-.6,5.88-2.18,1.85-1.89,2.23-4.07,2.21-6.61Z"/>
      <path class="cls-6" d="M98.74,39.74l3.37,2.39c7.18,5.2,12.19,10,14.52,18.86,7.3-1.54,15.04-3.05,22.47-1.44.05.12.1.25.15.37,1.04,2.47,3.2,4.47,4.19,7.1,1.22,3.24,1.69,8.7,3.21,11.48,1.28-.79,2.45-1.4,4-1.04,2.86.66,4.95,3.47,6.33,5.88,1.36,2.36,2.77,5.59,2.92,8.32l-.46.17c.02,2.54-.37,4.72-2.21,6.61-1.54,1.57-3.71,2.25-5.88,2.18-1.85-.06-3.3-.62-4.9-1.5-.36.58-.58.98-1.18,1.34-.58,1.19-1.28,2.13-2.62,2.53-1.2.35-3.29.27-4.23.97l-.35.61c-1.47,3.21-3.53,4.9-6.58,6.54-.66.96-.8,1.37-.62,2.55-.35.28-.79.53-1.17.77l-.33-.16c.2-.67.4-1.29.48-1.98l-.45.18c-.7-1.9-3.43-3.23-5.04-4.44-1.63-1.64-2.6-3.35-2.75-5.66l-.28-.4c-.51-.12-1-.22-1.52-.29-.15-.02-.31-.04-.46-.06-1.11-3.21-.13-7.56-.39-10.98-.29-3.86-1.16-9.8-4.32-12.38-1.78-1.45-3.14-1.57-5.36-1.41,1.01-5.19,14.1-7.9,16.68-12.04-.28-.72-.66-.91-1.36-1.19-3.16-1.29-9.78-1.43-12.84-.07-.78.55-1.57,1.13-2.55,1.27-1.74-7.87-4.78-14.29-8.86-21.22-.61-1.24-1.09-2.56-1.6-3.84Z"/>
      <path class="cls-14" d="M98.74,39.74l3.37,2.39c.72,3.73,3.98,7.97,5.75,11.41.83,1.59,1.57,3.22,2.22,4.89.65,1.67,1.2,3.37,1.66,5.1-.78.55-1.57,1.13-2.55,1.27-1.74-7.87-4.78-14.29-8.86-21.22-.61-1.24-1.09-2.56-1.6-3.84Z"/>
      <path class="cls-14" d="M121.61,102.36c4.2-1.66,8.67-3.43,13.16-1.37,1.5.69,2.63,1.68,3.64,2.96-3.54-.13-9.69-1.09-12.52,1.38-.79.69-1.15,1.74-1.53,2.69-1.63-1.64-2.6-3.35-2.75-5.66Z"/>
      <path class="cls-12" d="M124.36,108.02c.39-.95.74-2,1.53-2.69,2.83-2.46,8.98-1.51,12.52-1.38l-.35.61c-1.47,3.21-3.53,4.9-6.58,6.54-.66.96-.8,1.37-.62,2.55-.35.28-.79.53-1.17.77l-.33-.16c.2-.67.4-1.29.48-1.98l-.45.18c-.7-1.9-3.43-3.23-5.04-4.44Z"/>
      <path class="cls-9" d="M131.48,111.1c-.02-1.21.14-1.69.87-2.62,1.01-1.27,2.03-3.25,3.27-4.19.95-.06,1.52-.04,2.44.27-1.47,3.21-3.53,4.9-6.58,6.54Z"/>
      <path class="cls-10" d="M146.65,78.49c1.28-.79,2.45-1.4,4-1.04,2.86.66,4.95,3.47,6.33,5.88,1.36,2.36,2.77,5.59,2.92,8.32l-.46.17c.02,2.54-.37,4.72-2.21,6.61-1.54,1.57-3.71,2.25-5.88,2.18-1.85-.06-3.3-.62-4.9-1.5-.36.58-.58.98-1.18,1.34-.4-.5-.77-1.02-1.1-1.57-.33-.55-.63-1.12-.88-1.71-.25-.59-.47-1.19-.64-1.81-.17-.62-.3-1.24-.39-1.88-.72-5.3,1.23-10.82,4.41-15Z"/>
      <path class="cls-8" d="M145.87,98.45s-.1-.07-.15-.1c-1.25-1.07-1.88-2.61-2.11-4.21-.37-2.65.3-5.23,1.85-7.38.31.88.55,1.72.74,2.64.49,2.01-.01,4.3.56,6.17.3.98,1.49.58,1.54,1.88-.88.77-1.68.36-2.44,1.01Z"/>
      <path class="cls-16" d="M145.46,86.75c1.47-1.6,3.47-2.82,5.71-2.85,1.85-.02,3.91.66,5.17,2.08.46.51.85,1.1,1.23,1.66l-.48.4c-1.03-.39-2.05-.48-3.14-.56-.87-.11-1.48-.17-2.27.35-.47.31-.89.83-1.28,1.24-.1.1-.2.19-.3.29-1.11.03-2.15.18-3.16-.37-.22.11-.57.23-.74.4-.19-.91-.43-1.76-.74-2.64Z"/>
      <path class="cls-17" d="M146.95,88.99c.52-.87.82-1.42,1.78-1.88.6.19.87.19,1.13.83.16.4.19.99.25,1.43-1.11.03-2.15.18-3.16-.37Z"/>
      <path class="cls-3" d="M150.11,89.36c.1-.1.2-.19.3-.29.4-.4.81-.93,1.28-1.24.79-.52,1.39-.46,2.27-.35,1.09.08,2.11.17,3.14.56l.48-.4c.77,1.4,1.35,2.68,1.86,4.19.02,2.54-.37,4.72-2.21,6.61-1.54,1.57-3.71,2.25-5.88,2.18-1.85-.06-3.3-.62-4.9-1.5l-.57-.66c.76-.64,1.56-.24,2.44-1.01-.04-1.3-1.23-.9-1.54-1.88-.58-1.87-.07-4.17-.56-6.17.17-.17.52-.29.74-.4,1.01.55,2.05.41,3.16.37Z"/>
      <path class="cls-17" d="M153.95,87.49c1.09.08,2.11.17,3.14.56.17.88.39,1.81.07,2.68-.27.72-.82,1.29-1.57,1.51-.68.2-1.52.05-2.08-.4-.61-.48-.89-1.17-.9-1.93-.01-.97.75-1.74,1.34-2.41Z"/>
      <path class="cls-10" d="M91.16,115.37c4.7,4.96,11.78,10.34,18.59,11.82l-.89,4.37c10.39,2.95,21.81,2.74,31.79,7.1,3.8-.67,8.11-2.09,11.9-2.26,2.57,10.94,4.24,18.33.4,29.26-1.09,3.1-2.48,6.46-4.2,9.27-1.09,1.78-2.67,3.58-3.53,5.45.54,1,.58,1.68.28,2.76-.58,2.05-2.21,3.7-3.04,5.63l.47.33c-.29.89-.48,1.48-.31,2.43.28,2.3.72,3.16,2.58,4.58,2.69,2.06,6.41,3.27,9.52,4.58-8.63,7.42-20.21,10.28-31.46,9.38-8.51-.68-16.85-4.39-23.67-9.41-2.18-1.61-4.46-3.9-6.84-5.13l-.88-1.55c-2.25-6.61-3.29-12.68-3.59-19.63-.04-.08-.1-.15-.11-.23-.46-2.95-2.83-5.63-4.12-8.4-2.09-4.52-2.53-8.98-2.99-13.87.03-.05,1.39-12.53,1.79-14.51,1.21-6.04,3.35-11.61,5.78-17.24l2.53-4.75Z"/>
      <path class="cls-9" d="M106.85,189.35c.8-.29.89-.4,1.69-.02,1.38.66,2.6,2.29,3.39,3.55-.56.36-.83.45-1.51.31-1.71-.33-2.79-2.47-3.57-3.85Z"/>
      <path class="cls-9" d="M145.22,180.38c.54,1,.58,1.68.28,2.76-.58,2.05-2.21,3.7-3.04,5.63l-.44.36-.35-.49.66.2-.68-.54c.16-3.25,1.64-5.44,3.56-7.92Z"/>
      <path class="cls-9" d="M116.08,180.07c2.17,2.56,3.25,4.74,3.5,8.15l-.37.36c-.4-.11-.68-.19-1.03-.41-.48-1.03-1.32-1.91-2.04-2.78-.18-1.77-.35-3.56-.05-5.32Z"/>
      <path class="cls-4" d="M91.16,115.37c4.7,4.96,11.78,10.34,18.59,11.82l-.89,4.37-.82,3.76c-2.77,12.99-4.23,19.65,1.23,32.19,1.56,3.58,3.28,7.22,5.41,10.48.46.7.93,1.39,1.41,2.07-.29,1.76-.13,3.55.05,5.32.72.87,1.56,1.75,2.04,2.78l-.23.18c.26,1.08.33,1.77.13,2.87l-.51.6c-1.01.06-1.33-.21-2.1-.91-.09-.09-.19-.18-.28-.27l-.24.58c.17.91.33,1.08-.1,1.88-.77.24-1.28.2-2.02-.18-.29-.15-.35-.22-.57-.41l-.33.39c-.79-1.27-2.01-2.89-3.39-3.55-.81-.39-.9-.27-1.69.02-1.63-1.84-17.09-15.72-18.31-15.96l-.26.97c-.04-.08-.1-.15-.11-.23-.46-2.95-2.83-5.63-4.12-8.4-2.09-4.52-2.53-8.98-2.99-13.87.03-.05,1.39-12.53,1.79-14.51,1.21-6.04,3.35-11.61,5.78-17.24l2.53-4.75Z"/>
      <path class="cls-9" d="M109.73,185.96c.19.22.44.49.58.73.54.88.96,1.68,1.59,2.51h.3s-.86-4.88-.86-4.88c1.02,2.5,2.13,4.64,3.61,6.89.17.91.33,1.08-.1,1.88-.77.24-1.28.2-2.02-.18-.29-.15-.35-.22-.57-.41-1.32-2.09-1.91-4.17-2.53-6.53Z"/>
      <path class="cls-9" d="M115.19,190.64c-.66-.91-1.31-2.13-1.71-3.19-.29-.77-.56-1.3-.18-2.07.11-.01.21-.04.32-.03,1.51.04,3.26,2.02,4.33,3,.26,1.08.33,1.77.13,2.87l-.51.6c-1.01.06-1.33-.21-2.1-.91-.09-.09-.19-.18-.28-.27Z"/>
      <path class="cls-12" d="M91.16,115.37c4.7,4.96,11.78,10.34,18.59,11.82l-.89,4.37-.82,3.76c-1.95-.58-3.85-1.69-5.62-2.68-6.66-3.73-9.16-6.7-13.79-12.52l2.53-4.75Z"/>
    </g>
    <g>
      <path class="cls-13" d="M55.73,73.48c2.73,7.06,8.13,11.32,14.99,13.99.13.05.32-.03.69-.07-3.86-4.56-6.36-9.53-6.19-15.67.65-.26,1.35-.54,2.06-.8,20.47-7.59,26.74-34.28,11.79-50.22-11-11.74-30.19-12.2-42.04-1.02-8.96,8.45-12.37,18.76-8.83,30.54,3.65,12.14,12.67,18.78,24.92,21.14,1.43.27,2.09.82,2.59,2.12Z"/>
      <path class="cls-10" d="M46.89,28.08c.33-1.47.96-2.78,1.88-3.92.92-1.14,2.21-2.06,3.86-2.77,1.65-.7,3.42-1.05,5.31-1.05,2.55,0,4.78.64,6.69,1.91,1.91,1.27,3.09,3.23,3.53,5.87.31,1.93.12,3.77-.56,5.5-.68,1.74-1.6,3.27-2.77,4.61-1.16,1.34-2.32,2.65-3.46,3.92-1.14,1.27-2.02,2.69-2.64,4.25-.62,1.56-.72,3.15-.33,4.78h-2.7c-.4-1.93-.52-3.53-.36-4.78.15-1.25.48-2.55.99-3.89.5-1.34,1.05-2.54,1.65-3.59.59-1.05,1.1-2.32,1.52-3.79.42-1.47.63-2.95.63-4.45-.09-1.76-.59-3.17-1.52-4.25-.92-1.08-1.99-1.7-3.2-1.88-1.21-.17-2.44-.05-3.69.36-1.25.42-2.21,1.09-2.87,2.01.83-.62,1.76-.92,2.77-.92,1.23,0,2.3.44,3.2,1.32.9.88,1.35,1.98,1.35,3.3,0,1.23-.43,2.31-1.28,3.23s-1.94,1.38-3.26,1.38c-.84.04-1.63-.17-2.37-.66-.75-.48-1.32-1.16-1.71-2.04-.75-1.49-.96-2.98-.63-4.45ZM60.37,54.12c.83.81,1.25,1.84,1.25,3.06,0,1.14-.4,2.13-1.19,2.97-.79.83-1.8,1.25-3.03,1.25-1.14,0-2.13-.4-2.97-1.19-.84-.79-1.25-1.8-1.25-3.03,0-1.14.39-2.14,1.19-3,.79-.86,1.8-1.28,3.03-1.28,1.14,0,2.13.41,2.97,1.22Z"/>
    </g>
  </g>
</svg>