<?xml version="1.0" encoding="UTF-8"?>
<svg id="Calque_1" xmlns="http://www.w3.org/2000/svg" viewBox="0 0 256 256">
  <defs>
    <style>
      .cls-1 {
        fill: #772d80;
      }

      .cls-2 {
        fill: #fff;
      }
    </style>
  </defs>
  <rect class="cls-1" x="27" y="27" width="202" height="202" rx="45.34" ry="45.34"/>
  <path class="cls-2" d="M88.12,202.97c-2.81,0-5.6-.88-7.99-2.61-4.22-3.07-6.3-8.17-5.42-13.32l5.91-34.47c.31-1.8-.29-3.63-1.59-4.9l-25.04-24.41c-3.74-3.65-5.06-8.99-3.45-13.96,1.61-4.97,5.83-8.52,10.99-9.27l34.61-5.03c1.81-.26,3.36-1.39,4.17-3.03l15.48-31.36c2.31-4.68,6.99-7.59,12.21-7.59s9.9,2.91,12.21,7.59h0l15.48,31.36c.81,1.64,2.37,2.77,4.17,3.03l34.61,5.03c5.17.75,9.38,4.3,10.99,9.27,1.61,4.97.29,10.31-3.45,13.96l-25.04,24.41c-1.3,1.27-1.9,3.11-1.59,4.91l5.91,34.46c.88,5.15-1.19,10.25-5.42,13.32-4.22,3.07-9.72,3.47-14.34,1.04l-30.95-16.27c-1.61-.85-3.54-.85-5.15,0l-30.95,16.27c-2.01,1.06-4.19,1.58-6.35,1.58ZM128,61.11c-2.15,0-4.01,1.15-4.97,3.09l-15.48,31.36c-1.98,4.02-5.82,6.8-10.26,7.45l-34.6,5.03c-2.13.31-3.81,1.72-4.47,3.77-.67,2.05-.14,4.17,1.4,5.68l25.04,24.41c3.21,3.13,4.67,7.63,3.92,12.05l-5.91,34.47c-.37,2.12.46,4.15,2.2,5.41,1.74,1.27,3.92,1.43,5.83.42l30.95-16.27c3.97-2.09,8.71-2.09,12.67,0l30.95,16.27c1.9,1,4.09.85,5.83-.42,1.74-1.27,2.57-3.29,2.2-5.41l-5.91-34.47c-.75-4.42.71-8.93,3.92-12.06l25.04-24.41c1.54-1.5,2.07-3.63,1.4-5.68-.67-2.05-2.34-3.46-4.47-3.77l-34.61-5.03c-4.43-.64-8.27-3.43-10.25-7.45l-15.48-31.36c-.95-1.93-2.81-3.09-4.97-3.09Z"/>
</svg>