<?xml version="1.0" encoding="UTF-8"?>
<svg id="Calque_1" xmlns="http://www.w3.org/2000/svg" viewBox="0 0 256 256">
  <defs>
    <style>
      .cls-1 {
        fill: #58abaf;
      }
    </style>
  </defs>
  <path class="cls-1" d="M199.42,56.58c-18.29-18.26-43.52-29.58-71.43-29.58s-53.12,11.32-71.41,29.58c-18.29,18.26-29.58,43.52-29.58,71.41s11.29,53.14,29.58,71.43c18.29,18.29,43.52,29.58,71.41,29.58,55.79,0,101.01-45.22,101.01-101.01,0-27.88-11.32-53.14-29.58-71.41ZM144.7,180.98l-26.16-36.55-34.17,36.55h-15.52l42.96-45.95-42.96-60.01h42.43l24.55,34.29,32.08-34.29h15.52l-40.88,43.69,44.57,62.27h-42.43ZM90.71,86.26l59.77,83.48h14.79l-59.75-83.48h-14.82Z"/>
</svg>