<?xml version="1.0" encoding="UTF-8"?>
<svg id="Calque_1" xmlns="http://www.w3.org/2000/svg" viewBox="0 0 256 256">
  <defs>
    <style>
      .cls-1 {
        fill: #58abaf;
      }
    </style>
  </defs>
  <path class="cls-1" d="M199.42,56.58c-18.26-18.26-43.52-29.58-71.41-29.58s-53.14,11.32-71.43,29.58c-18.29,18.26-29.58,43.52-29.58,71.41s11.29,53.14,29.58,71.43c18.29,18.29,43.55,29.58,71.43,29.58,55.76,0,100.99-45.22,100.99-101.01,0-27.88-11.32-53.14-29.58-71.41ZM157.96,81.28c0,1.55-1.26,2.82-2.82,2.82h-14.01c-6.19,0-11.22,5.05-11.22,11.27v19.72h23.56c2.72,0,4.81,2.38,4.47,5.08l-1.68,13.5c-.29,2.26-2.21,3.96-4.47,3.96h-21.88v56.49c-2.31.19-4.64.32-7.02.32-5.27,0-10.44-.53-15.42-1.53v-55.28h-16.83c-1.55,0-2.82-1.26-2.82-2.82v-16.9c0-1.55,1.26-2.82,2.82-2.82h16.83v-25.36c0-15.57,12.56-28.17,28.05-28.17h19.62c1.55,0,2.82,1.26,2.82,2.82v16.9Z"/>
</svg>