<?xml version="1.0" encoding="UTF-8"?>
<svg id="Calque_1" xmlns="http://www.w3.org/2000/svg" viewBox="0 0 256 256">
  <defs>
    <style>
      .cls-1 {
        fill: #58abaf;
      }
    </style>
  </defs>
  <path class="cls-1" d="M199.42,56.58c-18.26-18.26-43.52-29.58-71.41-29.58s-53.14,11.32-71.43,29.58c-18.29,18.26-29.58,43.52-29.58,71.41s11.29,53.14,29.58,71.43c18.29,18.29,43.55,29.58,71.43,29.58,55.76,0,100.99-45.22,100.99-101.01,0-27.88-11.32-53.14-29.58-71.41ZM103.07,173.75c0,.53-.44.97-.97.97h-19.75c-.53,0-.97-.44-.97-.97v-63.1c0-.53.44-.97.97-.97h19.75c.53,0,.97.44.97.97v63.1ZM92.24,101c-7.19,0-13.02-5.83-13.02-13.02s5.83-13.02,13.02-13.02,12.99,5.83,12.99,13.02-5.8,13.02-12.99,13.02ZM176.78,170.37c0,2.38-1.94,4.35-4.32,4.35h-13.02c-2.38,0-4.35-1.97-4.35-4.35v-30.36c0-5.97-4.86-10.83-10.83-10.83s-10.83,4.86-10.83,10.83v30.36c0,2.38-1.97,4.35-4.35,4.35h-12.99c-2.4,0-4.35-1.97-4.35-4.35v-56.37c0-2.38,1.94-4.32,4.35-4.32h12.99c2.38,0,4.35,1.94,4.35,4.32v2.77c4.32-5.61,11.51-9.28,19.5-9.28,11.97,0,23.85,8.69,23.85,26.04v36.84Z"/>
</svg>