<?xml version="1.0" encoding="UTF-8"?>
<svg id="Calque_1" xmlns="http://www.w3.org/2000/svg" viewBox="0 0 256 256">
  <defs>
    <style>
      .cls-1 {
        fill: #fff;
      }

      .cls-2 {
        fill: #8475b5;
      }

      .cls-3 {
        fill: #58abaf;
      }
    </style>
  </defs>
  <rect class="cls-2" x="29.1" y="26.67" width="197.79" height="202" rx="81.89" ry="81.89"/>
  <g>
    <path class="cls-1" d="M159.95,110.36c-25.07-33.08-76.55-11-72.29,29.82,1.42,13.64,10.02,26.07,22.13,32.33l-.02,22.53c.53,3.41,3.1,5.76,6.54,6.07,7.49-.42,15.6.58,23.01.01,4.22-.32,6.62-3.05,6.95-7.2.48-5.93.16-13.84.01-19.91-.01-.57-.3-1.07-.21-1.62,22.9-11.49,29.37-41.6,13.87-62.03ZM142.85,177.02c1.17.22,1.19,3.36-.43,3.33l-29.54-.12c-.74-.36-.39-2.2-.41-2.96l30.38-.25ZM105.32,125.11c-.42.99-1.38,4.75-2.11,4.97-4.22,1.28-1.72-4.59-.99-6.3,2.68-6.33,8.07-12.13,14.26-15.15,1.44-.71,6.81-2.87,8.11-2.28.98.44,1.15,2.22.39,2.92-.28.26-4.67,1.39-5.62,1.79-6.19,2.56-11.44,7.89-14.04,14.05ZM143.18,195.71c-.46.27-5.19.1-6.2.11-6.18.05-12.4.06-18.58,0-1,0-5.17.19-5.66-.2-.5-.4-.52-2.69.13-3.01l29.74-.09c1.37-.16,1.24,2.8.57,3.19ZM142.42,188.09h-29c-1.44.08-1.46-3.4,0-3.34,9.31.61,19.58-.77,28.78,0,.34.03.91.04,1.15.28.61.61.45,3.18-.93,3.05Z"/>
    <path class="cls-3" d="M127.42,54.07c1.98-.38,3.44,1.34,3.6,3.16.67,7.52-.5,16.03-.03,23.66-.48,3.55-5.78,3.78-6.18-.86-.62-7.2.48-15.27.01-22.57.11-1.56.96-3.08,2.6-3.39Z"/>
    <path class="cls-3" d="M56.64,99.86c.99-.14,2.95.83,3.96,1.25,6.48,2.69,12.76,5.94,19.25,8.62,3.01,1.82,1.45,6.06-1.93,5.71l-22.41-9.9c-2.44-1.42-1.67-5.29,1.13-5.67Z"/>
    <path class="cls-3" d="M197.98,99.86c3.16-.36,4.68,4.02,1.89,5.67l-22.41,9.9c-3.35.35-4.94-3.76-2.07-5.63,6.5-2.8,12.87-5.95,19.39-8.7.8-.34,2.45-1.16,3.19-1.25Z"/>
  </g>
</svg>