<?xml version="1.0" encoding="UTF-8"?>
<svg id="Calque_1" xmlns="http://www.w3.org/2000/svg" viewBox="0 0 256 256">
  <defs>
    <style>
      .cls-1 {
        fill: #772d80;
      }

      .cls-2 {
        fill: #fff;
      }
    </style>
  </defs>
  <rect class="cls-1" x="27.33" y="27" width="202" height="202" rx="45.34" ry="45.34"/>
  <g>
    <path class="cls-2" d="M176.65,206.11c-14.17,0-25.68-11.52-25.68-25.68,0-1.09.07-2.18.22-3.31l-54.53-29.61c-4.65,4-10.54,6.14-16.67,6.14-14.17,0-25.68-11.52-25.68-25.68s11.52-25.68,25.68-25.68c6.14,0,11.99,2.18,16.67,6.14l54.57-29.54c-.15-1.13-.22-2.22-.22-3.31,0-14.17,11.52-25.68,25.68-25.68s25.68,11.52,25.68,25.68-11.52,25.68-25.68,25.68c-6.14,0-11.99-2.18-16.67-6.14l-54.53,29.61c.15,1.13.22,2.22.22,3.31s-.07,2.18-.22,3.31l54.53,29.61c4.65-4,10.54-6.14,16.67-6.14,14.13,0,25.65,11.52,25.65,25.65s-11.52,25.65-25.68,25.65ZM96.4,143.59c.29,0,.58.07.84.22l56.75,30.81c.69.36,1.05,1.13.91,1.89-.25,1.34-.36,2.65-.36,3.96,0,12.21,9.92,22.12,22.12,22.12s22.12-9.92,22.12-22.12-9.92-22.09-22.09-22.09c-5.67,0-11.04,2.14-15.19,6.07-.54.51-1.38.62-2.07.25l-56.75-30.84c-.69-.36-1.05-1.13-.91-1.89.25-1.34.36-2.69.36-3.96s-.11-2.62-.36-3.96c-.15-.76.22-1.53.91-1.89l56.75-30.81c.69-.36,1.49-.25,2.07.25,4.14,3.89,9.55,6.07,15.19,6.07,12.21,0,22.12-9.92,22.12-22.12s-9.92-22.12-22.12-22.12-22.12,9.92-22.12,22.12c0,1.27.11,2.62.36,3.96.15.76-.22,1.53-.91,1.89l-56.78,30.77c-.69.36-1.49.25-2.07-.25-4.14-3.89-9.55-6.07-15.19-6.07-12.21.04-22.12,9.95-22.12,22.16s9.92,22.12,22.12,22.12c5.67,0,11.04-2.14,15.19-6.07.36-.29.8-.47,1.24-.47Z"/>
    <path class="cls-2" d="M176.65,207.86c-15.13,0-27.44-12.31-27.44-27.44,0-.78.03-1.55.1-2.33l-52.46-28.49c-4.78,3.74-10.72,5.79-16.87,5.79-15.13,0-27.44-12.31-27.44-27.44s12.31-27.44,27.44-27.44c6.08,0,12.02,2.05,16.87,5.8l52.51-28.42c-.07-.79-.1-1.55-.1-2.33,0-15.13,12.31-27.44,27.44-27.44s27.44,12.31,27.44,27.44-12.31,27.44-27.44,27.44c-6.08,0-12.03-2.05-16.87-5.79l-52.47,28.49c.07.78.1,1.55.1,2.33s-.03,1.54-.1,2.33l52.46,28.49c4.78-3.74,10.72-5.79,16.88-5.79,15.11,0,27.4,12.29,27.4,27.4s-12.31,27.4-27.44,27.4ZM96.43,145.39l56.64,30.76-.15,1.19c-.13,1.05-.2,2.06-.2,3.08,0,13.2,10.74,23.93,23.93,23.93s23.93-10.72,23.93-23.9-10.72-23.9-23.9-23.9c-5.73,0-11.24,2.03-15.53,5.72l-.92.79-56.65-30.76.15-1.19c.14-1.06.2-2.07.2-3.08s-.07-2.02-.2-3.08l-.15-1.19,56.63-30.75.92.77c4.37,3.69,9.89,5.72,15.54,5.72,13.2,0,23.93-10.74,23.93-23.93s-10.74-23.93-23.93-23.93-23.93,10.74-23.93,23.93c0,1.01.07,2.01.2,3.08l.15,1.19-56.67,30.68-.91-.77c-4.37-3.69-9.89-5.72-15.54-5.72-13.2,0-23.93,10.74-23.93,23.93s10.74,23.93,23.93,23.93c5.73,0,11.24-2.03,15.53-5.72l.92-.79ZM176.65,204.33c-13.16,0-23.88-10.71-23.88-23.87,0-1.48.13-2.88.39-4.28l-56.76-30.83c-4.5,4.21-10.32,6.53-16.43,6.53-13.17,0-23.88-10.71-23.88-23.88s10.71-23.87,23.87-23.91c6.08,0,11.9,2.32,16.39,6.54l56.82-30.78c-.24-1.4-.37-2.84-.37-4.31,0-13.16,10.71-23.87,23.88-23.87s23.87,10.71,23.87,23.87-10.71,23.88-23.87,23.88c-6.07,0-11.89-2.33-16.38-6.54l-56.78,30.82c.24,1.41.37,2.85.37,4.31s-.13,2.9-.39,4.28l56.77,30.87c4.49-4.21,10.31-6.53,16.42-6.53,13.14,0,23.84,10.69,23.84,23.84s-10.71,23.87-23.87,23.87ZM96.4,141.83c.6,0,1.19.16,1.7.45l56.72,30.79c1.36.72,2.09,2.23,1.79,3.76-.22,1.18-.33,2.38-.33,3.63,0,11.23,9.14,20.37,20.37,20.37s20.37-9.14,20.37-20.37-9.12-20.34-20.33-20.34c-5.21,0-10.18,1.98-13.98,5.59-1.11,1.03-2.74,1.24-4.09.53l-56.77-30.85c-1.35-.71-2.08-2.23-1.79-3.75.22-1.17.33-2.39.33-3.63s-.11-2.46-.33-3.64c-.29-1.53.44-3.04,1.81-3.76l56.72-30.79c1.33-.71,2.92-.52,4.06.47,3.89,3.65,8.86,5.63,14.03,5.63,11.23,0,20.37-9.14,20.37-20.37s-9.14-20.37-20.37-20.37-20.37,9.14-20.37,20.37c0,1.25.11,2.47.33,3.63.29,1.53-.44,3.04-1.81,3.76l-56.76,30.76c-1.34.71-2.93.51-4.06-.48-3.88-3.64-8.85-5.63-14.03-5.63-11.23.03-20.37,9.18-20.37,20.41s9.14,20.37,20.37,20.37c5.21,0,10.18-1.98,13.98-5.59.8-.65,1.63-.95,2.44-.95Z"/>
  </g>
</svg>