<?xml version="1.0" encoding="UTF-8"?>
<svg id="Calque_1" xmlns="http://www.w3.org/2000/svg" viewBox="0 0 256 256">
  <defs>
    <style>
      .cls-1 {
        fill: none;
        stroke: #76d7db;
        stroke-linecap: round;
        stroke-linejoin: round;
        stroke-width: 2px;
      }

      .cls-2 {
        fill: #fff;
      }

      .cls-3 {
        fill: #8475b5;
      }
    </style>
  </defs>
  <rect class="cls-3" x="29.27" y="27" width="197.79" height="202" rx="81.89" ry="81.89"/>
  <g>
    <path class="cls-2" d="M86.73,137.99c3.78-4.03,8.37-7.58,13.19-10.33,16.37,13.56,41.43,13.82,57.74.06.13-.11.24-.04.38-.01.69.17,3.55,2.19,4.32,2.74,12.93,9.09,22.12,23.79,24.2,39.57,1.34,10.18.61,15.82-8.36,21.66-17.28,11.23-50.8,11.93-70.67,9.03-12.2-1.78-36.95-7.45-36.87-23.3.08-14.58,6.21-28.89,16.08-39.41Z"/>
    <path class="cls-2" d="M102.75,64.16c22.65-21.08,59.74-8,64.2,22.48,4.38,29.93-25.98,53.12-53.72,40.77-25.09-11.17-30.66-44.47-10.48-63.25Z"/>
    <path class="cls-1" d="M97.92,88.79c.78-7.04,3.96-13.92,9.77-19.33,4.4-4.1,9.47-6.6,14.7-7.71"/>
  </g>
</svg>