<?xml version="1.0" encoding="UTF-8"?>
<svg id="Calque_1" xmlns="http://www.w3.org/2000/svg" viewBox="0 0 256 256">
  <defs>
    <style>
      .cls-1 {
        fill: #fff;
      }

      .cls-2 {
        fill: #8475b5;
      }

      .cls-3 {
        fill: #58abaf;
      }
    </style>
  </defs>
  <rect class="cls-3" x="29.1" y="27" width="197.79" height="202" rx="81.89" ry="81.89"/>
  <path class="cls-1" d="M86.56,137.99c3.78-4.03,8.37-7.58,13.19-10.33,16.37,13.56,41.43,13.82,57.74.06.13-.11.24-.04.38-.01.69.17,3.55,2.19,4.32,2.74,12.93,9.09,22.12,23.79,24.2,39.57,1.34,10.18.61,15.82-8.36,21.66-17.28,11.23-50.8,11.93-70.67,9.03-12.2-1.78-36.95-7.45-36.87-23.3.08-14.58,6.21-28.89,16.08-39.41Z"/>
  <path class="cls-1" d="M102.58,64.16c22.65-21.08,59.74-8,64.2,22.48,4.38,29.93-25.98,53.12-53.72,40.77-25.09-11.17-30.66-44.47-10.48-63.25Z"/>
  <path class="cls-2" d="M97.75,91.35c-.09,0-.19,0-.28-.01-1.4-.16-2.42-1.42-2.26-2.82.89-8.09,4.55-15.32,10.56-20.92,4.53-4.21,10.03-7.09,15.91-8.34,1.38-.29,2.74.59,3.03,1.97.29,1.38-.59,2.74-1.97,3.03-5.05,1.07-9.58,3.45-13.48,7.08-5.11,4.75-8.21,10.89-8.96,17.74-.14,1.31-1.25,2.28-2.54,2.28Z"/>
</svg>