<?xml version="1.0" encoding="UTF-8"?>
<svg id="Calque_1" xmlns="http://www.w3.org/2000/svg" viewBox="0 0 256 256">
  <defs>
    <style>
      .cls-1 {
        fill: #fff;
      }

      .cls-2 {
        fill: #ccc2ff;
      }

      .cls-3 {
        fill: #58abaf;
      }
    </style>
  </defs>
  <rect class="cls-3" x="29.1" y="26.67" width="197.79" height="202" rx="81.89" ry="81.89"/>
  <g>
    <path class="cls-1" d="M178.46,95.08c-.47.32-.91.76-1.29,1.18-13.95,15.55-26.64,32.33-40.48,47.99-2.06,2.33-3.16,4.22-6.7,3.73-1.99-.27-4.07-2.63-4.07-4.62v-12.05s-.18-.29-.39-.2c-.12.05-1.45,1.6-1.68,1.88-12.11,14.04-23.77,28.47-35.94,42.46-4.74,3.7-10.71-1.52-7.49-6.7l45.8-54.12c2.24-3.17,7.15-3.29,8.93.36.37.76.65,2.31.65,3.1v11.36l34.95-41.27h-7.01c-1.81,0-3.98-2.3-4.23-4.07-.46-3.29,1.54-5.76,4.81-6.01,6.28-.49,13.2.38,19.56,0,2.57.26,4.34,2.09,4.65,4.63-.46,6.9.58,14.53,0,21.34-.43,4.97-6.95,6.33-9.33,2.2-.18-.32-.75-1.55-.75-1.81v-9.38Z"/>
    <path class="cls-2" d="M73.99,69.85v108.91c0,1.77,1.44,3.21,3.21,3.21h106.34c1.77,0,3.21,1.44,3.21,3.21h0c0,1.93-1.58,3.51-3.51,3.51h-113.3c-.21,0-1.46-.67-1.69-.88-.19-.18-.98-1.48-.98-1.59v-116.36c0-1.77,1.44-3.21,3.21-3.21h.3c1.77,0,3.21,1.44,3.21,3.21Z"/>
  </g>
</svg>